<svg width="12" height="8" viewBox="0 0 12 8" fill="none" xmlns="http://www.w3.org/2000/svg">
<path d="M11.7625 2.22673L6.44327 7.8175C6.37995 7.88386 6.31135 7.93098 6.23747 7.95885C6.16359 7.98672 6.08443 8.00043 6 7.99999C5.91557 7.99999 5.83641 7.98628 5.76253 7.95885C5.68865 7.93142 5.62005 7.8843 5.55673 7.8175L0.221636 2.22673C0.0738783 2.07189 -2.67586e-07 1.87834 -2.77739e-07 1.64608C-2.87891e-07 1.41382 0.0791554 1.21475 0.237467 1.04885C0.395778 0.88295 0.580475 0.800001 0.791556 0.800001C1.00264 0.800001 1.18733 0.88295 1.34565 1.04885L6 5.92626L10.6544 1.04885C10.8021 0.894009 10.9843 0.816589 11.2008 0.816589C11.4174 0.816589 11.6046 0.899538 11.7625 1.06544C11.9208 1.23134 12 1.42488 12 1.64608C12 1.86728 11.9208 2.06083 11.7625 2.22673Z" fill="#9F9F9F"/>
</svg>
