<svg width="56" height="56" viewBox="0 0 45 45" fill="none" xmlns="http://www.w3.org/2000/svg">
<rect width="45" height="45" rx="22.5" fill="#84D269"/>
<g clip-path="url(#clip0_1_1863)">
<path d="M30.5434 25.3065L27.0434 23.8065C26.8939 23.7428 26.7277 23.7294 26.5699 23.7683C26.4121 23.8071 26.2712 23.8962 26.1684 24.0221L24.6184 25.9159C22.1859 24.769 20.2282 22.8113 19.0812 20.3787L20.975 18.8287C21.1011 18.7261 21.1904 18.5852 21.2293 18.4273C21.2682 18.2694 21.2547 18.1032 21.1906 17.9537L19.6906 14.4537C19.6203 14.2926 19.4961 14.161 19.3392 14.0817C19.1823 14.0024 19.0027 13.9804 18.8312 14.0193L15.5812 14.7693C15.416 14.8075 15.2685 14.9005 15.163 15.0333C15.0574 15.166 15 15.3307 15 15.5003C15 23.5159 21.4969 30.0003 29.5 30.0003C29.6697 30.0004 29.8343 29.943 29.9672 29.8374C30.1 29.7318 30.1931 29.5843 30.2312 29.419L30.9812 26.169C31.02 25.9968 30.9974 25.8164 30.9175 25.659C30.8376 25.5016 30.7053 25.3769 30.5434 25.3065Z" fill="white"/>
</g>
<defs>
<clipPath id="clip0_1_1863">
<rect width="16" height="16" fill="white" transform="translate(15 14)"/>
</clipPath>
</defs>
</svg>
