<svg width="23" height="23" viewBox="0 0 23 23" fill="none" xmlns="http://www.w3.org/2000/svg">
<rect width="23" height="23" rx="6" fill="#00A6FB"/>
<path fill-rule="evenodd" clip-rule="evenodd" d="M16.7986 7.20369C16.9275 7.33414 17 7.51106 17 7.69553C17 7.88 16.9275 8.05691 16.7986 8.18737L10.2622 14.7963C10.1332 14.9267 9.95819 15 9.77575 15C9.59331 15 9.41834 14.9267 9.28931 14.7963L6.19314 11.6658C6.06781 11.5346 5.99846 11.3588 6.00003 11.1764C6.00159 10.994 6.07395 10.8195 6.20152 10.6905C6.32909 10.5616 6.50166 10.4884 6.68206 10.4868C6.86246 10.4852 7.03626 10.5554 7.16603 10.6821L9.77575 13.3208L15.8257 7.20369C15.9547 7.07327 16.1297 7 16.3121 7C16.4946 7 16.6695 7.07327 16.7986 7.20369Z" fill="white"/>
</svg>
