<svg width="13" height="13" viewBox="0 0 13 13" fill="none" xmlns="http://www.w3.org/2000/svg">
<path d="M11.9102 0.27902C11.8247 0.193376 11.7232 0.12543 11.6115 0.07907C11.4997 0.0327101 11.3799 0.00884703 11.2589 0.00884703C11.1379 0.00884703 11.0181 0.0327101 10.9063 0.07907C10.7946 0.12543 10.6931 0.193376 10.6076 0.27902L6.09 4.78738L1.5724 0.269781C1.48687 0.18425 1.38533 0.116403 1.27358 0.0701137C1.16183 0.0238245 1.04205 9.01218e-10 0.921092 0C0.800132 -9.01219e-10 0.680357 0.0238245 0.568605 0.0701137C0.456853 0.116403 0.355313 0.18425 0.269781 0.269781C0.18425 0.355313 0.116403 0.456853 0.0701137 0.568605C0.0238245 0.680357 -9.01218e-10 0.800132 0 0.921092C9.01219e-10 1.04205 0.0238245 1.16183 0.0701137 1.27358C0.116403 1.38533 0.18425 1.48687 0.269781 1.5724L4.78738 6.09L0.269781 10.6076C0.18425 10.6931 0.116403 10.7947 0.0701137 10.9064C0.0238245 11.0182 0 11.1379 0 11.2589C0 11.3799 0.0238245 11.4996 0.0701137 11.6114C0.116403 11.7231 0.18425 11.8247 0.269781 11.9102C0.355313 11.9957 0.456853 12.0636 0.568605 12.1099C0.680357 12.1562 0.800132 12.18 0.921092 12.18C1.04205 12.18 1.16183 12.1562 1.27358 12.1099C1.38533 12.0636 1.48687 11.9957 1.5724 11.9102L6.09 7.39262L10.6076 11.9102C10.6931 11.9957 10.7947 12.0636 10.9064 12.1099C11.0182 12.1562 11.1379 12.18 11.2589 12.18C11.3799 12.18 11.4996 12.1562 11.6114 12.1099C11.7231 12.0636 11.8247 11.9957 11.9102 11.9102C11.9957 11.8247 12.0636 11.7231 12.1099 11.6114C12.1562 11.4996 12.18 11.3799 12.18 11.2589C12.18 11.1379 12.1562 11.0182 12.1099 10.9064C12.0636 10.7947 11.9957 10.6931 11.9102 10.6076L7.39262 6.09L11.9102 1.5724C12.2613 1.22134 12.2613 0.630081 11.9102 0.27902Z" fill="#F25A5A"/>
</svg>
