<svg width="11" height="12" viewBox="0 0 11 12" fill="none" xmlns="http://www.w3.org/2000/svg">
<path opacity="0.7" d="M5.5 6.49539C6.59304 6.49539 7.09965 7.17675 7.20597 8.14485C7.23093 8.37636 7.20566 8.714 7.16899 9.10509C7.04634 10.404 6.90521 12 7.95695 12C8.84753 12 9.30392 10.5967 9.56832 8.99693C9.82286 7.41333 9.5526 6.62533 9.68604 5.92193C9.93903 4.58959 11.3538 3.39505 10.9168 1.6962C10.6746 0.753688 10.0429 0.310675 9.41794 0.123996C7.9776 -0.306859 7.04696 0.523443 5.5 0.523443C3.95335 0.523443 3.02332 -0.306859 1.58237 0.123996C0.957734 0.310422 0.3257 0.753688 0.0828701 1.6962C-0.353175 3.39505 1.06128 4.58934 1.3152 5.92193C1.4474 6.62507 1.17868 7.41333 1.43292 8.99693C1.6967 10.5967 2.15401 12 3.04366 12C4.09479 12 3.95458 10.404 3.83193 9.10509C3.79619 8.71375 3.76907 8.3761 3.79465 8.14459C3.90065 7.17675 4.41466 6.49539 5.5 6.49539Z" fill="#BEC5CB"/>
</svg>
